<svg xmlns="http://www.w3.org/2000/svg" width="1200" height="630" viewBox="0 0 1200 630">
  <defs>
    <linearGradient id="bg" x1="0%" y1="0%" x2="100%" y2="100%">
      <stop offset="0%" stop-color="#0f89ec"/>
      <stop offset="100%" stop-color="#085899"/>
    </linearGradient>
    <radialGradient id="glow" cx="20%" cy="40%" r="60%">
      <stop offset="0%" stop-color="white" stop-opacity="0.18"/>
      <stop offset="100%" stop-color="white" stop-opacity="0"/>
    </radialGradient>
  </defs>
  <rect width="1200" height="630" fill="url(#bg)"/>
  <rect width="1200" height="630" fill="url(#glow)"/>

  <!-- Decorative dot grid (right side) -->
  <g fill="white" fill-opacity="0.08">
    <circle cx="840" cy="40" r="3"/><circle cx="900" cy="40" r="3"/><circle cx="960" cy="40" r="3"/><circle cx="1020" cy="40" r="3"/><circle cx="1080" cy="40" r="3"/><circle cx="1140" cy="40" r="3"/>
    <circle cx="840" cy="100" r="3"/><circle cx="900" cy="100" r="3"/><circle cx="960" cy="100" r="3"/><circle cx="1020" cy="100" r="3"/><circle cx="1080" cy="100" r="3"/><circle cx="1140" cy="100" r="3"/>
    <circle cx="840" cy="160" r="3"/><circle cx="900" cy="160" r="3"/><circle cx="960" cy="160" r="3"/><circle cx="1020" cy="160" r="3"/><circle cx="1080" cy="160" r="3"/><circle cx="1140" cy="160" r="3"/>
    <circle cx="840" cy="220" r="3"/><circle cx="900" cy="220" r="3"/><circle cx="960" cy="220" r="3"/><circle cx="1020" cy="220" r="3"/><circle cx="1080" cy="220" r="3"/><circle cx="1140" cy="220" r="3"/>
    <circle cx="840" cy="280" r="3"/><circle cx="900" cy="280" r="3"/><circle cx="960" cy="280" r="3"/><circle cx="1020" cy="280" r="3"/><circle cx="1080" cy="280" r="3"/><circle cx="1140" cy="280" r="3"/>
    <circle cx="840" cy="340" r="3"/><circle cx="900" cy="340" r="3"/><circle cx="960" cy="340" r="3"/><circle cx="1020" cy="340" r="3"/><circle cx="1080" cy="340" r="3"/><circle cx="1140" cy="340" r="3"/>
    <circle cx="840" cy="400" r="3"/><circle cx="900" cy="400" r="3"/><circle cx="960" cy="400" r="3"/><circle cx="1020" cy="400" r="3"/><circle cx="1080" cy="400" r="3"/><circle cx="1140" cy="400" r="3"/>
    <circle cx="840" cy="460" r="3"/><circle cx="900" cy="460" r="3"/><circle cx="960" cy="460" r="3"/><circle cx="1020" cy="460" r="3"/><circle cx="1080" cy="460" r="3"/><circle cx="1140" cy="460" r="3"/>
    <circle cx="840" cy="520" r="3"/><circle cx="900" cy="520" r="3"/><circle cx="960" cy="520" r="3"/><circle cx="1020" cy="520" r="3"/><circle cx="1080" cy="520" r="3"/><circle cx="1140" cy="520" r="3"/>
    <circle cx="840" cy="580" r="3"/><circle cx="900" cy="580" r="3"/><circle cx="960" cy="580" r="3"/><circle cx="1020" cy="580" r="3"/><circle cx="1080" cy="580" r="3"/><circle cx="1140" cy="580" r="3"/>
  </g>

  <!-- PIE Logo -->
  <g transform="translate(80, 142) scale(0.337)">
    <path fill-rule="evenodd" clip-rule="evenodd" d="M96.1323 0.790967C72.4305 2.9521 49.3598 13.3694 32.6207 29.4698C13.9269 47.4501 3.654 67.6577 0.861642 91.9373C0.0945467 98.6026 -0.154733 154.823 0.0913368 265.486C0.491467 445.739 -0.0691433 430.528 6.85611 448.99C12.9544 465.247 28.3508 485.005 43.0444 495.427C57.0939 505.392 74.5328 511.958 92.8949 514.196C104.759 515.641 890.372 515.682 904.953 514.238C924.612 512.291 942.087 505.891 956.288 495.437C982.399 476.215 996.233 451.599 999.164 419.144C999.909 410.897 1000.16 353.735 999.903 249.438C999.526 94.2953 999.49 92.0368 997.28 82.5385C991.612 58.1691 977.828 36.8252 958.216 22.0471C944.621 11.8031 929.288 5.04583 911.907 1.64044C904.133 0.118021 112.568 -0.706848 96.1323 0.790967ZM904.037 58.9404C921.338 62.6079 934.71 74.7124 940.713 92.1416C942.914 98.5298 942.936 99.9346 943.251 252.648C943.46 354.725 943.194 409.537 942.458 415.093C939.648 436.328 924.672 452.68 904.023 457.056C893.059 459.38 105.174 459.31 95.3096 456.984C85.5043 454.673 78.3115 450.607 70.9466 443.214C63.7453 435.984 59.2861 427.919 57.632 419.134C56.192 411.481 56.1524 106.421 57.5914 97.6376C60.725 78.4987 75.6058 63.3108 95.4497 58.995C105.53 56.8028 893.701 56.7493 904.037 58.9404Z" fill="#0f172a"/>
    <path d="M216.184 293.383C216.379 292.602 216.77 292.309 217.355 292.504C218.137 292.504 218.82 292.406 219.406 292.211C217.844 290.648 216.867 288.598 216.477 286.059C216.086 283.324 215.109 281.078 213.547 279.32C213.938 278.344 214.23 277.367 214.426 276.391C214.816 275.414 215.695 275.023 217.062 275.219C216.477 270.922 216.574 266.918 217.355 263.207C218.137 259.496 219.309 255.98 220.871 252.66C222.629 249.34 224.582 246.117 226.73 242.992C229.074 239.672 231.32 236.352 233.469 233.031C235.227 232.641 236.301 232.836 236.691 233.617C237.082 234.203 237.766 234.008 238.742 233.031C241.867 230.883 244.016 228.539 245.188 226C246.359 223.266 246.945 220.336 246.945 217.211C248.703 212.133 250.656 207.152 252.805 202.27C255.148 197.191 257.785 192.504 260.715 188.207C263.645 183.91 266.77 180.199 270.09 177.074C273.41 173.754 277.023 171.215 280.93 169.457C283.664 167.113 287.082 164.965 291.184 163.012C295.48 161.059 299.973 159.594 304.66 158.617C309.543 157.445 314.523 156.859 319.602 156.859C324.68 156.664 329.367 157.152 333.664 158.324C334.641 158.715 335.227 158.52 335.422 157.738C335.617 156.762 336.105 156.273 336.887 156.273C346.652 157.445 355.344 159.398 362.961 162.133C370.773 164.867 377.414 168.676 382.883 173.559C386.594 179.418 390.109 185.766 393.43 192.602C396.75 199.242 399.289 206.273 401.047 213.695C403 220.922 403.879 228.441 403.684 236.254C403.488 244.066 401.828 251.879 398.703 259.691C391.867 268.285 383.566 275.219 373.801 280.492C364.035 285.57 353.488 289.867 342.16 293.383C331.027 296.703 319.406 299.438 307.297 301.586C295.383 303.734 283.762 306.078 272.434 308.617C272.629 313.891 272.629 319.555 272.434 325.609C272.238 331.469 271.555 337.426 270.383 343.48C269.406 349.34 267.844 355.102 265.695 360.766C263.742 366.43 261.008 371.703 257.492 376.586C253.586 376.391 249.484 376.781 245.188 377.758C241.086 378.734 237.375 379.711 234.055 380.688C232.492 379.711 230.93 378.734 229.367 377.758C228 376.977 226.242 376.488 224.094 376.293C224.68 373.949 224.094 371.508 222.336 368.969C220.773 366.43 219.113 363.988 217.355 361.645C215.793 359.105 214.719 356.664 214.133 354.32C213.742 351.781 214.914 349.535 217.648 347.582C216.086 346.215 215.305 344.066 215.305 341.137C216.086 341.918 217.062 342.309 218.234 342.309C217.844 338.793 218.234 334.594 219.406 329.711C220.773 324.828 221.848 320.043 222.629 315.355C223.605 310.473 223.801 306.078 223.215 302.172C222.629 298.07 220.285 295.141 216.184 293.383ZM292.355 224.828C291.574 226.977 290.891 228.93 290.305 230.688C289.914 232.25 289.426 233.715 288.84 235.082C288.254 236.449 287.57 237.816 286.789 239.184C286.203 240.551 285.52 242.113 284.738 243.871C285.129 245.043 285.91 245.922 287.082 246.508C288.254 247.094 289.035 247.973 289.426 249.145C292.16 247.777 294.895 246.801 297.629 246.215C300.363 245.434 303.098 244.848 305.832 244.457C308.566 244.066 311.301 243.578 314.035 242.992C316.77 242.406 319.602 241.43 322.531 240.062C325.461 238.695 328.488 237.621 331.613 236.84C334.934 235.863 338.156 234.887 341.281 233.91C344.406 232.934 347.434 231.859 350.363 230.688C353.293 229.32 355.832 227.562 357.98 225.414C355.246 222.875 351.145 220.629 345.676 218.676C340.207 216.723 334.25 215.551 327.805 215.16C321.555 214.574 315.207 214.965 308.762 216.332C302.512 217.699 297.043 220.531 292.355 224.828ZM427.016 379.516C424.281 377.758 422.133 375.512 420.57 372.777C418.812 370.043 417.445 367.113 416.469 363.988C415.297 360.863 414.418 357.641 413.832 354.32C413.051 350.805 412.27 347.484 411.488 344.359C411.488 341.625 412.074 339.672 413.246 338.5C414.418 337.133 415.688 335.863 417.055 334.691C421.742 334.496 425.941 334.105 429.652 333.52C433.363 332.934 436.977 332.348 440.492 331.762C444.008 331.176 447.523 330.688 451.039 330.297C454.555 329.711 458.363 329.418 462.465 329.418C465.395 323.363 468.129 317.602 470.668 312.133C473.207 306.469 475.648 301.098 477.992 296.02C479.164 291.137 480.629 286.645 482.387 282.543C484.34 278.246 486.195 274.242 487.953 270.531C489.711 266.625 491.273 262.816 492.641 259.105C494.008 255.199 494.887 251.098 495.277 246.801C497.621 239.965 499.672 233.715 501.43 228.051C503.383 222.191 504.848 215.258 505.824 207.25C498.402 208.422 492.445 209.594 487.953 210.766C483.461 211.742 480.238 212.719 478.285 213.695C474.379 213.5 471.254 212.719 468.91 211.352C466.762 209.984 465.004 208.324 463.637 206.371C462.27 204.418 461.098 202.172 460.121 199.633C459.145 197.094 457.973 194.457 456.605 191.723C457.387 189.965 457.582 187.426 457.191 184.105C456.801 180.59 455.629 178.051 453.676 176.488C455.238 176.098 456.41 174.828 457.191 172.68C457.973 170.336 458.07 168.578 457.484 167.406C460.805 166.43 464.32 165.844 468.031 165.648C471.742 165.258 475.355 164.965 478.871 164.77C482.582 164.379 486.098 163.988 489.418 163.598C492.738 163.012 495.57 161.938 497.914 160.375C508.07 159.984 518.617 159.594 529.555 159.203C540.688 158.812 550.941 158.324 560.316 157.738C563.832 158.91 567.836 159.496 572.328 159.496C577.016 159.496 581.605 159.789 586.098 160.375C590.785 160.961 594.887 162.23 598.402 164.184C602.113 166.137 604.652 169.555 606.02 174.438C608.949 174.828 611.098 175.609 612.465 176.781C614.027 177.953 615.004 179.418 615.395 181.176C615.785 182.738 615.883 184.594 615.688 186.742C615.688 188.695 615.688 190.648 615.688 192.602C612.562 194.945 608.559 196.898 603.676 198.461C598.988 199.828 593.812 201 588.148 201.977C582.484 202.758 576.527 203.344 570.277 203.734C564.223 203.93 558.266 204.125 552.406 204.32C551.43 210.766 549.672 218.383 547.133 227.172C544.789 235.766 542.348 244.262 539.809 252.66C537.27 260.863 535.023 268.285 533.07 274.926C531.312 281.371 530.531 285.57 530.727 287.523C528.773 292.016 527.113 295.824 525.746 298.949C524.574 302.074 523.402 305.004 522.23 307.738C521.254 310.473 520.18 313.207 519.008 315.941C518.031 318.48 516.762 321.41 515.199 324.73H535.121C535.512 326.879 536.391 328.344 537.758 329.125C539.125 329.906 540.59 330.59 542.152 331.176C543.715 331.762 545.082 332.543 546.254 333.52C547.621 334.301 548.305 335.668 548.305 337.621C552.016 338.598 554.359 340.062 555.336 342.016C556.312 343.969 556.508 346.117 555.922 348.461C555.531 350.609 554.555 352.855 552.992 355.199C551.625 357.543 550.258 359.594 548.891 361.352C547.133 360.961 545.473 361.449 543.91 362.816C542.348 363.988 540.883 365.355 539.516 366.918C533.852 366.137 528.285 366.039 522.816 366.625C517.348 367.211 512.27 367.699 507.582 368.09C506.605 368.285 506.215 368.871 506.41 369.848C506.605 370.629 506.41 371.215 505.824 371.605C499.77 369.652 493.52 368.871 487.074 369.262C480.824 369.652 474.379 370.629 467.738 372.191C461.293 373.559 454.652 375.023 447.816 376.586C440.98 378.344 434.047 379.32 427.016 379.516Z" fill="#0f172a"/>
    <path d="M626.129 366.039C624.566 364.477 623.395 362.621 622.613 360.473C622.027 358.324 620.465 356.566 617.926 355.199C617.535 352.27 616.949 348.949 616.168 345.238C615.582 341.332 614.898 337.426 614.117 333.52C613.531 329.418 613.043 325.414 612.652 321.508C612.457 317.406 612.652 313.695 613.238 310.375C613.629 308.617 614.215 306.957 614.996 305.395C615.973 303.832 616.852 302.367 617.633 301C618.609 299.438 619.293 297.875 619.684 296.312C620.27 294.75 620.367 293.188 619.977 291.625C621.148 291.43 621.832 290.844 622.027 289.867C622.418 288.695 623.395 288.305 624.957 288.695C626.324 284.398 627.789 280.395 629.352 276.684C630.914 272.973 632.574 269.359 634.332 265.844C636.09 262.328 637.848 258.812 639.605 255.297C641.559 251.586 643.316 247.484 644.879 242.992C641.559 239.867 639.117 236.547 637.555 233.031C636.188 229.32 635.113 225.609 634.332 221.898C633.551 218.188 632.965 214.477 632.574 210.766C632.184 206.859 631.402 202.953 630.23 199.047C632.574 195.531 635.406 192.699 638.727 190.551C642.047 188.207 645.66 186.352 649.566 184.984C653.668 183.422 658.062 182.25 662.75 181.469C667.438 180.492 672.418 179.418 677.691 178.246C687.066 175.316 695.465 173.07 702.887 171.508C710.309 169.75 717.535 168.383 724.566 167.406C731.598 166.234 738.922 165.258 746.539 164.477C754.156 163.5 762.945 162.133 772.906 160.375C773.102 160.961 773.395 161.254 773.785 161.254C774.371 161.254 775.055 161.254 775.836 161.254C776.422 162.621 777.496 163.305 779.059 163.305C779.059 162.719 778.961 162.23 778.766 161.84C778.766 161.254 778.766 160.766 778.766 160.375C779.156 160.375 779.645 160.473 780.23 160.668C781.012 160.863 781.598 161.059 781.988 161.254C782.574 161.449 783.062 161.449 783.453 161.254C783.844 160.863 783.941 160.18 783.746 159.203C786.09 163.305 789.117 166.723 792.828 169.457C796.539 171.996 800.641 174.242 805.133 176.195C805.328 177.953 805.328 179.223 805.133 180.004C805.133 180.785 805.035 181.566 804.84 182.348C804.645 182.934 804.547 183.715 804.547 184.691C804.547 185.473 804.742 186.645 805.133 188.207C802.008 193.48 798.395 197.582 794.293 200.512C790.387 203.441 786.188 205.688 781.695 207.25C777.203 208.812 772.418 209.984 767.34 210.766C762.457 211.547 757.379 212.426 752.105 213.402C747.027 214.184 741.852 215.355 736.578 216.918C731.305 218.48 726.129 220.824 721.051 223.949C719.488 223.363 718.023 223.168 716.656 223.363C715.484 223.363 714.215 223.559 712.848 223.949C711.48 224.34 709.918 224.73 708.16 225.121C706.598 225.512 704.645 225.512 702.301 225.121C700.738 226.488 698.883 227.465 696.734 228.051C694.781 228.637 692.73 229.223 690.582 229.809C691.559 231.957 691.949 234.105 691.754 236.254C691.754 238.402 692.047 240.258 692.633 241.82C700.836 242.602 709.918 242.602 719.879 241.82C729.84 240.844 739.605 240.16 749.176 239.77C749.371 240.746 749.273 241.43 748.883 241.82C748.492 242.211 748.297 242.895 748.297 243.871C750.055 245.043 751.715 246.508 753.277 248.266C754.84 250.023 756.402 251.781 757.965 253.539C759.723 255.102 761.48 256.469 763.238 257.641C764.996 258.617 767.047 259.008 769.391 258.812C770.367 260.766 771.051 262.816 771.441 264.965C771.832 267.113 771.539 269.359 770.562 271.703C766.656 274.242 762.848 276.879 759.137 279.613C755.426 282.152 751.52 284.496 747.418 286.645C743.512 288.793 739.215 290.551 734.527 291.918C729.84 293.285 724.762 293.871 719.293 293.676C718.316 293.676 717.438 293.676 716.656 293.676C716.07 293.676 715.289 293.285 714.312 292.504C712.359 293.480 709.723 293.871 706.402 293.676C703.277 293.285 700.641 293.578 698.492 294.555C695.758 293.578 692.535 293.090 688.824 293.090C685.309 293.090 682.184 292.602 679.449 291.625C675.934 296.703 672.613 302.074 669.488 307.738C666.363 313.207 663.629 319.066 661.285 325.316C669.293 326.488 675.934 326.977 681.207 326.781C686.480 326.586 691.461 326.195 696.148 325.609C700.836 325.023 705.621 324.438 710.504 323.852C715.582 323.266 721.734 323.07 728.961 323.266C733.844 320.922 739.41 319.359 745.66 318.578C752.105 317.602 758.062 316.234 763.531 314.477C765.484 315.062 767.145 316.234 768.512 317.992C769.879 319.555 771.148 321.215 772.32 322.973C773.688 324.535 775.055 325.902 776.422 327.074C777.789 328.246 779.547 328.637 781.695 328.246C782.672 329.223 783.258 330.395 783.453 331.762C783.844 333.129 784.137 334.398 784.332 335.570C784.723 336.742 785.211 337.719 785.797 338.500C786.383 339.086 787.457 339.281 789.020 339.086C785.309 346.703 781.109 352.562 776.422 356.664C771.930 360.766 766.754 363.988 760.895 366.332C755.230 368.480 748.785 370.141 741.559 371.312C734.527 372.289 726.617 373.559 717.828 375.121C715.680 375.512 713.824 375.512 712.262 375.121C710.895 374.535 709.430 374.242 707.867 374.242C702.398 375.219 695.855 376.195 688.238 377.172C680.816 378.148 673.297 378.539 665.680 378.344C658.062 378.148 650.738 377.172 643.707 375.414C636.676 373.656 630.816 370.531 626.129 366.039Z" fill="#0f89ec"/>
  </g>

  <!-- Title -->
  <text x="460" y="265" font-family="Helvetica, Arial, sans-serif" font-size="86" font-weight="900" fill="white" letter-spacing="-1">Programming</text>
  <text x="460" y="365" font-family="Helvetica, Arial, sans-serif" font-size="86" font-weight="900" fill="white" letter-spacing="-1">Is Easy</text>

  <!-- Tagline -->
  <text x="460" y="433" font-family="Helvetica, Arial, sans-serif" font-size="26" font-weight="300" fill="white" fill-opacity="0.85">No jargon. No boring tutorials.</text>
  <text x="460" y="469" font-family="Helvetica, Arial, sans-serif" font-size="26" font-weight="300" fill="white" fill-opacity="0.85">Interactive lessons that make programming click.</text>
</svg>
